<?xml version="1.0" standalone="no"?>
<!DOCTYPE svg PUBLIC "-//W3C//DTD SVG 20010904//EN"
 "http://www.w3.org/TR/2001/REC-SVG-20010904/DTD/svg10.dtd">
<svg version="1.0" xmlns="http://www.w3.org/2000/svg"
 width="993.000000pt" height="993.000000pt" viewBox="0 0 993.000000 993.000000"
 preserveAspectRatio="xMidYMid meet">
<metadata>
Created by potrace 1.14, written by Peter Selinger 2001-2017
</metadata>
<g transform="translate(0.000000,993.000000) scale(0.100000,-0.100000)"
fill="#000000" stroke="none">
<path d="M4881 9853 c-1 -7 -4 -12 -8 -11 -43 12 -255 -43 -348 -89 -174 -87
-274 -212 -360 -448 -36 -101 -92 -281 -110 -355 -2 -8 -19 -80 -39 -160 -29
-123 -63 -271 -82 -370 -7 -34 -9 -35 -33 -11 -72 72 -187 112 -322 112 -55 0
-104 -3 -108 -5 -5 -3 -26 -8 -47 -12 -67 -10 -199 -63 -237 -95 -52 -43 -77
-96 -77 -164 0 -44 10 -79 55 -183 52 -122 64 -163 48 -161 -5 0 -26 22 -48
49 -22 27 -43 49 -47 49 -7 1 87 -150 124 -198 22 -29 23 -41 3 -41 -27 0
-102 57 -177 135 -27 28 -120 152 -147 198 -28 45 -36 43 -20 -4 18 -53 93
-161 169 -242 39 -41 70 -77 70 -79 0 -3 -6 -5 -14 -5 -7 0 -30 -10 -50 -22
-37 -23 -50 -39 -18 -23 9 5 45 9 79 8 67 -1 78 -8 213 -135 l54 -52 -92 4
c-79 3 -111 -1 -69 -9 45 -9 64 -17 141 -55 82 -41 111 -66 64 -54 -36 9 -215
9 -301 1 -116 -11 -257 -43 -327 -73 -134 -58 -188 -89 -275 -157 -49 -39
-136 -128 -131 -133 2 -2 34 11 71 28 57 25 121 48 215 74 8 3 4 -3 -10 -13
-38 -26 -224 -165 -236 -177 -6 -5 -35 -30 -64 -54 -59 -51 -170 -163 -170
-173 0 -6 24 -5 135 6 33 3 85 8 115 11 30 3 78 7 105 10 122 12 144 14 215
20 41 3 85 8 96 10 12 3 61 7 110 11 l89 5 -72 -48 c-39 -26 -108 -74 -153
-106 -125 -90 -132 -122 -66 -314 19 -57 33 -103 32 -103 -2 0 -29 26 -62 58
-58 56 -71 67 -130 107 -35 25 -161 82 -201 91 -59 14 -200 13 -255 -1 -328
-86 -565 -405 -644 -870 -10 -58 -12 -362 -3 -404 5 -20 20 -90 35 -156 81
-369 235 -676 434 -863 56 -52 163 -126 224 -152 43 -20 45 -22 35 -48 -15
-38 -75 -294 -87 -372 -30 -179 -33 -422 -7 -449 6 -5 1 -14 59 104 43 89 151
282 166 295 3 3 21 28 40 55 90 129 208 241 309 295 19 10 15 1 -21 -46 -115
-151 -224 -396 -253 -568 -3 -17 -8 -38 -10 -46 -5 -19 -15 -87 -25 -175 -7
-66 -5 -361 4 -415 2 -14 6 -50 10 -80 13 -104 58 -305 93 -420 20 -63 41
-132 46 -152 15 -52 27 -48 28 10 2 74 16 229 25 277 2 11 6 45 9 75 8 82 46
279 56 285 4 3 5 -12 1 -32 -3 -21 -6 -105 -6 -188 -1 -168 6 -261 29 -393 2
-15 7 -43 10 -62 9 -50 43 -177 63 -230 9 -25 17 -47 18 -50 6 -42 104 -227
165 -315 62 -89 132 -167 126 -140 -35 141 -59 260 -72 365 -2 19 -6 51 -9 70
-18 125 -23 363 -11 510 7 94 15 117 16 49 1 -88 14 -201 34 -305 9 -44 18
-90 21 -104 26 -132 112 -362 186 -500 215 -397 497 -652 938 -847 83 -37 330
-116 338 -108 2 2 -12 38 -31 82 -19 43 -44 107 -56 143 -29 86 -62 230 -47
206 80 -134 190 -264 300 -355 77 -63 257 -168 387 -225 39 -17 241 -86 268
-91 9 -2 43 -10 76 -18 33 -9 74 -18 90 -21 17 -3 39 -7 50 -9 11 -3 43 -8 70
-11 28 -3 67 -9 89 -12 21 -3 36 -2 33 3 -8 12 -21 306 -18 392 1 32 9 23 60
-72 55 -103 171 -310 177 -316 2 -3 11 5 19 17 9 11 21 27 28 34 30 31 154
212 214 313 172 288 311 629 388 950 25 102 45 203 47 233 1 6 4 12 8 12 4 0
10 -28 13 -62 3 -35 9 -76 12 -93 9 -39 9 -276 1 -340 -10 -85 -33 -190 -48
-217 -13 -26 -4 -23 62 22 229 156 418 454 514 812 14 51 27 107 30 123 3 17
7 41 10 55 3 14 9 45 12 70 3 25 7 52 9 60 26 103 25 714 -1 796 -5 17 -5 17
6 2 6 -10 19 -50 29 -90 11 -40 28 -107 39 -148 26 -95 60 -261 67 -321 3 -26
8 -58 11 -70 2 -13 5 -54 5 -91 0 -38 4 -68 8 -68 7 0 17 50 22 102 0 4 5 22
10 40 5 18 12 50 14 70 3 20 12 71 20 114 8 43 13 80 11 82 -3 2 -1 14 4 27 5
12 11 51 15 86 4 35 8 78 10 94 26 209 25 551 -1 699 -9 52 4 25 46 -97 61
-178 127 -411 128 -453 0 -3 3 -8 6 -12 6 -5 9 76 9 273 0 111 -10 346 -17
385 -2 14 -7 50 -11 81 -3 31 -10 71 -15 88 -5 17 -9 34 -9 36 1 25 -34 143
-51 175 -8 15 -3 28 23 62 190 248 364 584 440 848 89 309 75 629 -39 865 -88
183 -222 242 -394 172 -35 -14 -65 -25 -66 -24 -2 1 -5 20 -8 42 -2 22 -12 72
-20 110 -63 296 -165 500 -285 573 l-32 19 31 30 c41 40 125 80 202 96 60 13
79 13 156 3 38 -6 40 0 9 35 -12 15 -35 44 -52 65 -16 20 -36 43 -42 50 -7 7
-13 14 -13 17 0 5 135 -28 149 -37 34 -21 35 145 2 239 -36 101 -130 223 -229
296 -19 13 -39 29 -45 35 -7 5 -32 22 -55 36 -24 14 -40 28 -35 31 4 2 38 10
76 17 37 7 67 15 67 19 0 8 -100 66 -197 115 l-72 36 23 52 c49 111 93 272
202 733 3 11 7 65 8 120 11 311 -183 580 -553 767 -52 27 -102 48 -111 48 -9
0 -20 3 -24 7 -3 4 -12 8 -19 9 -7 2 -64 18 -127 38 -63 19 -162 48 -220 66
-58 17 -125 37 -150 46 -46 14 -277 84 -295 88 -31 8 -166 49 -200 62 -22 9
-41 15 -43 14 -3 -2 -19 3 -287 84 -134 41 -251 65 -340 69 -16 1 -33 6 -37
12 -5 6 -8 4 -8 -5 0 -13 -2 -13 -9 -1 -7 12 -13 12 -24 3 -7 -7 -17 -9 -21
-5 -11 11 -60 10 -68 -2 -5 -6 -8 -5 -8 3 0 9 -5 10 -19 2 -14 -7 -21 -6 -24
3 -4 9 -6 9 -6 0z m-1848 -2648 c-62 -28 -63 -28 -173 -25 l-85 2 55 14 c30 7
80 16 110 20 30 3 56 7 57 8 1 1 22 3 45 4 l43 1 -52 -24z"/>
</g>
</svg>
