<?xml version="1.0" encoding="utf-8"?>
<!-- Generator: Adobe Illustrator 23.0.1, SVG Export Plug-In . SVG Version: 6.00 Build 0)  -->
<svg version="1.1" id="Vrstva_1" xmlns="http://www.w3.org/2000/svg" xmlns:xlink="http://www.w3.org/1999/xlink" x="0px" y="0px"
	 viewBox="0 0 1980.3 669.9" style="enable-background:new 0 0 1980.3 669.9;" xml:space="preserve">
<style type="text/css">
	.st0{fill-rule:evenodd;clip-rule:evenodd;fill:#513F39;}
	.st1{fill-rule:evenodd;clip-rule:evenodd;fill:#EBDFD5;}
	.st2{fill-rule:evenodd;clip-rule:evenodd;fill:#D6BEAA;}
	.st3{fill-rule:evenodd;clip-rule:evenodd;fill:#B7916D;}
	.st4{fill-rule:evenodd;clip-rule:evenodd;fill:#79695F;}
	.st5{fill-rule:evenodd;clip-rule:evenodd;fill:#7B6B61;}
	.st6{fill-rule:evenodd;clip-rule:evenodd;fill:#7A6C60;}
	.st7{fill-rule:evenodd;clip-rule:evenodd;fill:#D5BDA9;}
	.st8{fill-rule:evenodd;clip-rule:evenodd;fill:#B68F6B;}
	.st9{fill-rule:evenodd;clip-rule:evenodd;fill:#D5C4B8;}
	.st10{fill-rule:evenodd;clip-rule:evenodd;fill:#ECDFD5;}
	.st11{fill-rule:evenodd;clip-rule:evenodd;fill:#D6C4B8;}
	.st12{fill-rule:evenodd;clip-rule:evenodd;fill:#B9A292;}
	.st13{fill-rule:evenodd;clip-rule:evenodd;fill:#B78F6C;}
	.st14{fill-rule:evenodd;clip-rule:evenodd;fill:#9C7F65;}
	.st15{fill-rule:evenodd;clip-rule:evenodd;fill:#FFFFFF;}
	.st16{fill-rule:evenodd;clip-rule:evenodd;fill:#AD958B;}
	.st17{fill-rule:evenodd;clip-rule:evenodd;fill:#4F423C;}
	.st18{fill-rule:evenodd;clip-rule:evenodd;fill:#FFFFFC;}
	.st19{fill-rule:evenodd;clip-rule:evenodd;fill:#7C6E65;}
	.st20{fill-rule:evenodd;clip-rule:evenodd;fill:#5D4F49;}
	.st21{fill-rule:evenodd;clip-rule:evenodd;fill:#3B2D2C;}
	.st22{fill-rule:evenodd;clip-rule:evenodd;fill:#483837;}
	.st23{fill-rule:evenodd;clip-rule:evenodd;fill:#1B151E;}
	.st24{fill-rule:evenodd;clip-rule:evenodd;fill:#B3A491;}
	.st25{fill-rule:evenodd;clip-rule:evenodd;fill:#D0C3B2;}
	.st26{fill-rule:evenodd;clip-rule:evenodd;fill:#C6B1A8;}
	.st27{fill-rule:evenodd;clip-rule:evenodd;fill:#1B151D;}
	.st28{fill-rule:evenodd;clip-rule:evenodd;fill:#2F2122;}
	.st29{fill-rule:evenodd;clip-rule:evenodd;fill:#5D484A;}
	.st30{fill-rule:evenodd;clip-rule:evenodd;fill:#503D38;}
	.st31{fill-rule:evenodd;clip-rule:evenodd;fill:#E9DDD3;}
	.st32{fill-rule:evenodd;clip-rule:evenodd;fill:#EADED4;}
	.st33{fill-rule:evenodd;clip-rule:evenodd;fill:#3C3431;}
	.st34{fill-rule:evenodd;clip-rule:evenodd;fill:#EADFD6;}
	.st35{fill:#513F39;}
	.st36{display:none;}
	.st37{fill:none;}
</style>
<g id="Vrstva_3">
	<path class="st0" d="M286.7,197.4l-95.6-2.2c0,0-25.9,17.5-33.1,28.1l55.4-5.3l-17.7,12.4c0,0-5.3,3.3-2.9,11.1l4.5,13.8
		c0,0-26.5-35.4-60.4-6.9c0,0-25.9,21.5-22.5,67c0,0,6.5,63.3,47.1,79.3c0,0-11.6,36.4-6.3,54.8c0,0,17-40.8,38.1-49
		c0,0-41.4,39.9-10.3,125c0,0,2-34.6,6.6-46.3c0,0-8.8,57.2,25.7,92.8c0,0-10.6-35.6-5.3-69.1c0,0-3.9,98.2,96.9,123.3
		c0,0-7.6-14.2-9.8-29.7c0,0,15,41.2,87,49.3c0,0-1.4-21-0.9-27.4l15,27.1c0,0,34.4-37.6,44.6-100.3c0,0,6.1,26-1.6,47.4
		c0,0,51.8-23.9,40.6-126.1c0,0,11.8,36,10,54.7c0,0,13.9-56.4,6.5-90.1c0,0,12.8,33.3,12.1,43.6c0,0,3.8-49-6.4-71.6
		c0,0,41.5-50.5,32.5-94.5c0,0-5.4-42.9-34.2-25.5c0,0-4.7-39.5-21.9-47.9c0,0,9.2-11.6,27.2-7.8l-7.5-9.4l-38.2-41l-97.6,6.3
		L286.7,197.4z"/>
	<path class="st1" d="M210.3,316.8c0,0-26.1-56-62.3-21.8c0,0,24.2-8.1,41.9,10.6c0,0-34.1-1.5-31.9,34.6c0,0,27.6-43.9,41.8-5.4
		c-11.1,12.8-21.6,27-31.6,42.4c4.1-1.8-21.3-4.9-35.4-51.7c0,0-7.1-61.7,16.9-63.6c0,0,32.9-1.7,43.9,15.7c0,0-1.1-8.5-4.3-11
		C189.2,266.8,204.9,279.6,210.3,316.8z"/>
	<path class="st2" d="M210.3,316.8c0,0-26.1-56-62.3-21.8c0,0,24.2-8.1,41.9,10.6c0,0-34.1-1.5-31.9,34.6c0,0,27.6-43.9,41.8-5.4
		c-4.5,5.2-8.9,10.6-13.1,16.2c-6.4,8.3-12.5,17.1-18.5,26.3c0,0-9.3-0.8-19.3-14c-5.7-7.6-13.2-16.1-16.2-37.6c0,0-1-9-1-20.2
		c0-0.6,0.1-1.2,0.2-1.7c10.1-43.7,64.5-31.5,72.1-12.2C208,301.4,208.5,304.4,210.3,316.8z"/>
	<path class="st3" d="M148,295.1c0,0,19.6,0.4,24.8,14.6c0,0,9.8-3.7,17.3-3.8C190.1,305.9,173.7,285.9,148,295.1z"/>
	<path class="st3" d="M158,340.3c0,0,12.5-23.4,26.4-21.4c0,0,13.2-0.2,15.7,16.6l-27.3,34.8c0,0,17.9-26.6,11.5-33.6
		C184.2,336.7,178.5,326.2,158,340.3z"/>
	<path class="st4" d="M168.1,263.3l32.5,40.3l-0.7-11.1l8.1,11.6c0,0-3.8-27.8-18.9-37c0,0,1.4,2.5,2.9,7.7
		C192,274.8,181.9,265.4,168.1,263.3z"/>
	<path class="st5" d="M175.6,395.4c0,0,15.6-53.1,42-56.9c0,0-5.7,11.8,3.3,18.9c0,0,16.1,12.3,18,17l-7,12.6l8.4-5.1
		c0,0-8.4,12.8-11.8,21.5c0,0,13.2-19.9,20.1-20.6c0,0-43.1,108.7-3.3,174.5c0,0-51.3-49.3-30-126.4c0,0-14.5,27.8-15.2,35.3
		c0,0,1.4-42.3,7.5-48.7c0,0-28.3,28-23.3,60.5c0,0-18-54.5,36.6-101.4C220.8,376.6,195.9,373.4,175.6,395.4z"/>
	<path class="st6" d="M261.5,563c0,0,15.8,37.7,31.2,50c0,0-6.5-12.6-7-15.5c0,0-3.2-21.9,8-36.9c0,0-11.3,2.8-17.5,21.7
		C276.3,582.2,263.3,565.3,261.5,563z"/>
	<path class="st5" d="M297.3,578.5c0,0,38,42.7,68.8,52.5C366.2,631,335.2,600,297.3,578.5z"/>
	<path class="st5" d="M449.3,401.6c0,0,12.1,65.4,8.9,92.5c0,0,22.3-48,14.7-71c0,0,10.5,10,11.4,15.6c0,0,4.8-28.4-1.7-33.1
		c0,0,6.9-19.4,1.5-29.8C484.1,375.9,465.4,399.6,449.3,401.6z"/>
	<path class="st7" d="M498.2,381.5l-10.1-38.8c0,0,2.2-11,16.2,0.1c0,0,3.4-14.5-10.6-16.2c0,0,4.3-11.2,17.2-9.4
		c0,0-14.6-14.8-22.3,3.5c0,0,4.6-33.4,29.3-23.8c0,0,13.9,3.7,3.2,37C521.2,333.9,509.4,374.3,498.2,381.5z"/>
	<path class="st8" d="M511,317.2c0,0,6.3,4.3,2.2,14.5c0,0-0.7-10.5-12.9-6.2c0,0,8.2,5.8,4.2,17.3c0,0-0.3-16-12.5-15.2
		C491.9,327.6,495.5,314,511,317.2z"/>
	<path class="st8" d="M504.4,342.9c0,0-13,1.9-12.3,15.4l-4.2-15.4C488,342.8,490.2,330.9,504.4,342.9z"/>
	<path class="st5" d="M488.5,321.4c0,0,3.1-29.3,20.2-26.5l-11.3,16.6C497.4,311.5,491.4,314.2,488.5,321.4z"/>
	<path class="st2" d="M374.5,278.4c0,0-12.4-24.5-45.5-29.5c0,0-26-17.4-59.9-9.3c0,0,13.2,4.2,20,9.6c0,0-28.2-6.1-43.6,5.2
		l13.1,1.7c0,0-20.9,13.9-25.4,29.6c0,0,12.2-5.3,16.4-4.9c0,0-13.5,14.8-14.8,19.2c0,0,13.4-5.1,16.1-4.7c0,0-6.5,23.8-5.5,30.3
		l17.3,13.8l-3.8,11.4l22.5,5.5l-1.3,11.9l18.2-3.9l27.7-4.5l23-8.8l27.2-3.9l19.9,0.5l22.3,2.5l22.2,22l20.7-4.3
		c0,0,18.6-41.5,5.5-63.7l4.8-0.4c0,0-7.7-21.3-24.1-25.5c0,0,12.6-3.4,16.8-1.8c0,0-17.3-14.5-28.9-15.6l3.5-3.2
		c0,0-37.7-14-58,20.3L374.5,278.4z"/>
	<path class="st9" d="M258.6,256.2c0,0-22.5,14-25.4,29.6c0,0,12.6-4.5,15.9-4.2c0,0-14,12.5-15.7,20.1c0,0,19.2-7.4,26.5-6.5
		c0,0-5.6,12.7-3.4,24.4c0,0,11.3-23.2,19.2-25.3c0,0,10.7,0.8,23.2-5.9l27.5-7.8l17.7-9.4l-3.9-6.6l-15.3-11l-20-3.7l-14.4,0.9
		l-7.9-0.6l-10.3-0.7l-9.7,1.4L258.6,256.2z"/>
	<path class="st10" d="M382.3,275.8c0,0,14.6-29.9,57-18.3l-5.3,2.1l-19.5,8.3l-14.8,6.9l-12,2.4L382.3,275.8z"/>
	<path class="st11" d="M391.9,273.2c0,0-11.9,0.5-11.1,5.8c0,0,0.4,4.4,10.6,3.1l29.6,3.3l26.1,3.4c0,0,17.2,4.8,24.1,13.8
		c0,0-0.7-11.5-16.7-20.5l1.2-5.3l8.8,1.2c0,0-3.1-12.1-28.2-17.2l3-3.3c0,0-18.2-3.9-31.1,5.6C408.2,263,396.3,264.4,391.9,273.2z"
		/>
	<path class="st10" d="M330.6,249.1c0,0-35.9-18.7-62.3-9.6c0,0,14,4.8,19.1,9.5c0,0-26.5-6-42.4,5.6c0,0,9.1,1.5,12.2,2.4l12.8-2.7
		l3.6-0.8c0,0,10.3-4.4,10,1.9c0,0,14.1-3.8,17.2-0.5c0,0,7.6,0.1,8.1,1.8c0,0,26.2,1,30.4,7.4c0,0,2-4.5-3.5-8.6
		C335.8,255.5,323.5,251.8,330.6,249.1z"/>
	<path class="st12" d="M346.2,260.6c0,0-16.1,10.8-20.5,14.6l6.5,15.8c0,0,14-2.8,7.1-8l9.9-2.8l3.7,12.4c0,0,4,1.8-0.1,6.8
		c0,0-2.2,3.3,4.2,2l4.8-1.3c0,0,0.5,3.3,5,0.7c0,0,2.1,1.5,3.5,1.7c0,0-1.1,7.1,6.5,7.7c0,0-2.8,6.7,0.7,8.2c0,0,4.4,1.9,8.5-4.2
		s9.7-11.1,9.7-11.1l11.2,0.8l22.9,2.6l22.3,4.4l4-1.7c0,0,14.3-4.2,3.7-12.2c0,0-10-7.4-14-8.5l-17.9-3.5l-41.2-3.1
		c0,0-5.4-0.4-6-3.5l-6.3-0.1c-9.8-16.1-25-25-43.7-29c0,0-3.5,0.6-2.5,2.7C328.2,251.8,331.3,255.3,346.2,260.6z"/>
	<path class="st13" d="M285.4,389.1c0,0-35.9,21.4-29.9,52.5c0,0,29.3-20.3,46.8-11.8l-13.4-22c0,0,12.1-37,48.4-32.2
		c0,0,8.7-30,38.5-10.1c0,0,10.5-10.9,14.2-12.4l-20.9-4.4l-38.5,13.4L294,374L285.4,389.1z"/>
	<path class="st13" d="M417.3,392.5c0,0,17.4,26,10.8,49.8l5.6,1c0,0,15.5-29.2-0.8-44.5c0,0,9.1-3.8,10.5-5.6l-10.1-6.7
		L417.3,392.5z"/>
	<path class="st14" d="M260.4,327.8c0,0-22.7-1.9-34.8-9.8c0,0,4.4,17.6,17.9,22.2l-7.8,12.3c0,0-2.8,10-2.7,14.4
		c0,0,34.3,21.9,55.5,22.8c0,0,15.5-9.8,21.2-10c0,0,17.1-5.4,21.9-7.4c0,0,8-5,12.4-10.6c0,0,15.8-8.2,18.3-7.6
		c0,0,11.3,4.8,12.7,4.4c1.2-0.3,10.2-2,14.4-4.8l13.6,0.9l10.7,11.4l3,12.3l0.7,14.1c0,0,22.8,4.3,37.1-3c0,0,8,1.9,7.7,6
		c0,0,17.6-30.8-18.8-40.7c0,0,16.6-8.9,21.8-8.2l-9-7l-5.5,1l-28.9,1.4l-30.3-2.3l-11.1-4.2c0,0-7.6-15.5-8.6-6.4
		c0,0-3.4-21.5-7.3-23.3c0,0-7.2,25.8-7.9,29.2c0,0-7.5-2.3-16.2-2.8l-26.6,0.3L260.4,327.8z"/>
	<path class="st15" d="M272,330.1l4,3.5l5.4,3.8l1.8,0.2l-0.9-11l-2.9-8.9L272,330.1z"/>
	<path class="st15" d="M343.6,324.8c0,0-2.3,13.8-13.5,18.6l-7,2.9l-6.2-0.5l3.3-29.5l-3.5-7.5l2-11.9l14.6-0.8l7.2,5.1l2,9.1
		L343.6,324.8z"/>
	<path class="st16" d="M290.3,302.8l-5.4,10.6l-1.4,7.8l1.2,11.5l4.2,8.2l10.8,4.4l15.6,1.5l6.8-2.2l3.2-6c0,0,4.6-6.6,4.7-7.7
		s0.5-6.1,0.5-6.1l-0.6-7.6l-3-8.3l-4.7-6l-3.8-4l-13,1.3L290.3,302.8z"/>
	<g transform="matrix(1.08915,0,0,1.14768,-83.8128,-137.656)">
		
			<ellipse transform="matrix(7.689983e-02 -0.997 0.997 7.689983e-02 -68.9423 728.7116)" class="st17" cx="359.1" cy="401.6" rx="17.1" ry="11.6"/>
	</g>
	<path class="st18" d="M301.9,306.8c0,0-9.6,4.9-11,7c0,0-1.8,2.5,1.4,3.6c0,0,5.2,2.3,11.8-2.9c0,0,3.7-2.8,1.5-5.8
		C305.7,308.7,304.9,306,301.9,306.8z"/>
	<path class="st0" d="M330.6,345c0,0-37.5,8.6-57.6-13.2l5.6-10.2c0,0,1.2,13.2,3,15l9.5,4.6c0,0-13.4-21.9,1.6-34.7l24.8-5.1
		c0,0,25.3,20.7-1,43.6l7.1-0.3c0,0,21.4-23.5,0.2-43.5l9.6-0.7l10.1,24.6c0,0,6.4-15.1,3-25.4l9.1-4.1c0,0-19.6-3.3-22.6-4.5
		c0,0-13.7,7.5-31.2-0.3c0,0-17.7,3.3-21.9,6.6c0,0-7.1,4.8-10.6,12s-8,15.6-8,15.6s-3.3,4.7,3,9.5c0,0,21.5,20.4,54.8,19.4
		C319.3,353.7,329.2,353.7,330.6,345z"/>
	<path class="st19" d="M272.7,331.5c0,0,17.3,21.7,57.9,13.5c-0.1,0.3-0.1-1.6-0.6-1.5c-24.2,4-45.7-2.4-56.2-13.1
		C273.3,329.7,273,330.8,272.7,331.5z"/>
	<path class="st0" d="M303.4,266.4c0,0-20.2-9.1-23-10.5c0,0-11.9-6.3-16-2.5c0,0-4.5,5.4,7.3,16.2c0,0,13.8,15.8,30.8,20.9
		c0,0,19.1,7.1,29.9-0.6c0,0,5-9.4-0.3-11.3L303.4,266.4z"/>
	<path class="st4" d="M277.4,268.8c0,0,29,18.5,42,21.3c0,0-1.2-2.4-2.5-2.6c0,0,10.1-4.9,5.7-11.6c0,0-3.7,3.2-7.5,2.8
		c0,0,1.8-5.2,0-6.3c0,0-2,5.5-4.4,5.6l-9.7-4.7c0,0,3.6,5.1,1.7,5.9c0,0-2,1-3.6-6.6c0,0-19.5-12.6-20.7-14.3
		c0,0,6.2,10.1,12.8,14.4C291.1,272.7,280.5,268.8,277.4,268.8z"/>
	<path class="st4" d="M301,271.4c0,0-7.3-9.1-9.6-7C291.5,264.4,289.1,267,301,271.4z"/>
	<path class="st0" d="M420,273.4c0,0-24.1,4.5-31.7,7.1c0,0-9.9,2.4-7.8,8.1c0,0,2.7,10.3,34.4,8.2c0,0,33.7-1.5,42-19.9
		c0,0,2.9-6.8-4.6-8.7C452.3,268.2,441.9,269.1,420,273.4z"/>
	<path class="st4" d="M432.4,272.6c0,0,4.8,8.2-9.2,8.6c0,0,4.5,2.8,3.4,4.3c0,0-1.6,2.3-7.1-3.3c0,0-20.3,1.9-25.3,0.9
		c0,0,6.5,4.1,19.1,4.1c0,0-9.6,1.5-14,4.8c0,0,37.5-1.7,48.1-7.9c0,0-2.4-0.8-4.4-0.4c0,0,5.5-9.3-2.1-12.7c0,0-0.7,4.6-4,6.5
		C436.8,277.5,435.3,273.2,432.4,272.6z"/>
	<path class="st15" d="M385,315c0,0-6.7,15,9.8,23.2l10.5,3.6h16.5l15.3-1l0.5-2.2c0,0,9.3-3.7,11.4-8.6l2.1-4.9L452,313l-16.9-9.2
		l-21-1.6l-17.4,3.6L385,315z"/>
	<path class="st16" d="M400.7,307.2l-2.3,4l-1.8,5.6l-0.6,7.1l2.2,6.4l3.9,5.2l2.1,4.7l19.3,2.3l8.1-2.4l3.1-5.5l3.9-8.3l-0.6-8.5
		l-2.7-6.5l-2.5-3.4l-22.6-3.9L400.7,307.2z"/>
	<path class="st19" d="M378.5,335c0,0,40.6,6.2,69.1,0.3l3.4,0.2l-3.3,2.7l-19.1,2.2l-17.3,1.1l-18-1.5l-10.3-1.4L378.5,335z"/>
	<path class="st0" d="M376.6,304.1c0,0,18.2-2.4,25.6-6.8c0,0,18.6,1.3,24.7-0.1c0,0,15.3,1,19.6,3.3c0,0,12.3,7.2,13.7,13.8
		c0,0,1,15.9-3.4,26.5c0,0-67.1,11.1-78.2-5.8c0,0,35.3,10.9,68.8,2.1l2.3-15.7c0,0-11.3-10-11.4-11.1l-2.5-0.3c0,0,12.7,14,0,27.2
		l-7.4,0.7c0,0,12.5-7.6,5-27.6l-9.2-0.5c0,0,13.4,19.3-6.2,25c0,0-19.4,2.8-11.4-24.2l-6.9-0.6c0,0-8.8,16.9,5.7,28.1l-3.9,0.1
		c0,0-13.1-12.2-3.1-28.4l-2.8,0.1c0,0-5.6,9-5.6,16.5c0,0-6.2-5.7-4.6-15c0,0-7.8-1.8-9.2-2l9.1-2.8L376.6,304.1z"/>
	<path class="st15" d="M410,310c0,0,8.1,4,8.3,6.3c0,0,0.7,4.2-5.8,2.9c0,0-9.3-1.7-8.1-7.6C404.5,311.6,404.9,307.9,410,310z"/>
	<path class="st20" d="M214.6,192c0,0-25,1-44.4,11.4c0,0,18.7-28.9,68.6-23.5c0,0-11-7.3-18.6-7.8l13.6,0.4L221,160.7
		c0,0-8.3-0.8-10.5,0.9c0,0,4.1-3.6,6.9-3.6c0,0-16.5-15.6-16-23.5c0,0,8.8,16.8,21.1,23.8l2.6,0.2l-10.7-16.3l7.5,7.8l0.5-3.1
		l28.2,1.1l39.2,7.8l-11,10l-15.1,15.5l-2.3,6.3l-28.9,4.9L214.6,192z"/>
	<path class="st17" d="M496.8,215.4c0,0-54.7-24.7-120.7-6.4c0,0-29.9,12.1-79.9-7.4c0,0-66.6-17.3-73.7-52.7c0,0-4.9-11-6.7-15.6
		c0,0-5.5-13.1,9.1-18.9c0,0,26.6-12.2,41.9,4.5c0,0,12.2-63.8,23.4-74.7c0,0,14.2-25.4,63.6-16.4l95.9,28.9c0,0,55.1,19.1,39.9,67
		c0,0-6.9,32.7-12.5,42.4c0,0,13.9,6.2,17.5,9.7l-10.3,2.3c0,0,30.3,15,25,40.3L496.8,215.4z"/>
	<path class="st21" d="M273.8,131.3c0,0,7.1-61.3,20.6-78.6c0,0,14.6-25.9,54.6-16.8c0,0,62.2,10,102.9,31.3c0,0,36,16,31.3,47.9
		c0,0-3.3,24-7.5,32.3l-16.5,16.5l-10.2,6.5c0,0-46.7,1.6-64,6.2c0,0-47.3-12.4-51.1-14.6C333.8,161.9,276.1,134.1,273.8,131.3z"/>
	<path class="st22" d="M279.3,134.7c0,0,12.9-60.2,17.7-64.9c0,0,11.3-42.5,83.8-22.1c0,0-33.6-4.9-48.1,53.4l-13.8,53.5
		L279.3,134.7z"/>
	<path class="st23" d="M404.9,55.4c0,0,28.5,9.1,2.7,64.2c0,0-30.8,40.6-43,51.3l20.4,5.7c0,0,55.2-6.5,64-6.3l10.2-6.2
		c0,0,10.5-28.6,10.8-34c0,0,8.3-38-17.2-52.4C452.7,77.6,420.3,59.5,404.9,55.4z"/>
	<path class="st24" d="M272.1,139c0,0-3.6,19.8-5.3,23.2l10,12c0,0,18.9,7.1,21.5,7.4c0,0,44.7,3.2,51.5,2.7c0,0,8.8-5.7,12.9-5.5
		C362.7,178.6,301.1,162.9,272.1,139z"/>
	<path class="st25" d="M277.3,143c0,0-4.9,20.6-5.8,24.9l4.1,4.8c0,0,15.7,2,25.3,9l10.6,0.7l5-19.1L277.3,143z"/>
	<path class="st26" d="M354.3,176.4l-13.3,7.7l8.7,0.3l12.9-5.6L354.3,176.4z"/>
	<path class="st27" d="M264.6,125.9c0,0-24.2-16.3-39.2-1.2c0,0-9.4,11.3-0.8,27.1c0,0,8.2,23.4,50.8,32.6c0,0-18.4-10.6-19-17.9
		L264.6,125.9z"/>
	<path class="st21" d="M486.6,189.4c0,0-14.2-7.5-23.2-8.6c0,0-66.5-0.8-112.2,11c0,0-18.1,3-35-0.3l-13.3-1.5l-12.8-1.5
		c0,0-18.6-5.1-23.3-6.5c0,0,9.4,12,32.4,15.1l13.3,3.8l53.8,14.6c0,0,16.2-13.6,55.1-12.3c0,0,26.8-2.3,77,12.7
		C498.5,215.8,504.8,198.3,486.6,189.4z"/>
	<path class="st28" d="M441.4,181.2c0,0,41.2,23,47.3,31.9c0,0-82.5-24.1-120.3,2.6c0,0-8.5-15.4-3.7-26.4
		C364.8,189.3,413,179.7,441.4,181.2z"/>
	<path class="st22" d="M232.5,163.2c0,0,18.1,16.2,34.3,18.8l8.7,7.3C275.5,189.3,241.9,182.4,232.5,163.2z"/>
	<path class="st29" d="M486.8,189.6l-12.4,2.3c0,0-46.3-8.5-96.4,5.9c0,0-38.3,5.3-53.5,3.5l6.3,9c0,0,44.9-2.7,59.7-6
		c0,0,79.4-18.5,109.2,5.3C499.6,209.6,501.5,197.2,486.8,189.6z"/>
	<path class="st2" d="M375.6,370.4c0,0,24-25.7,31.8-5.2l6,12.9c0,0,3.3,9.3-5.4,17.9c0,0-10.4,13.1-18.3,17.7c0,0,15.8-3.6,23.7-15
		c0,0,13.6,23.7,9.6,42.9c0,0-35.9-3.9-55.7,5.2c0,0-38.9,15.6-64.3,0.6c0,0,9.2-7.1,20.1-5.4c0,0-20.5-9.9-43.8,5.7
		c0,0-28.1,18.2-2.9,40.3c-6.2-18.1-2.4-32.3-1.9-24.8c0.6,9.7,17.1,17.1,14.5,14.5c-18.9-19-1.4-27.7,3.9-27.1
		c0,0,7.5,14.7,39.4,13.3c26.1-1.2,40.9-8.1,53.6-11.5c-0.2,1.2,35.7-6.7,55.5,4.4c0,0,11.8,4.3,3.8,18.5c0,0-38.5-23.8-86.2,4.9
		c-0.2,1.4,47.9-8.4,82.5,2.4l-26.5,14l-12.4,20l-5.5,14.6l-15.8,2.4l-9,19.9c0-0.2-9.2,21.5-18,27.3c0,0-34.3-17.5-41.3-50.3
		c0,0,0.3,29,4.4,35.8c-8.9-7.3-14.8-18.6-20.9-29.8l-1.3-13.7l-4.7-19.1L286,502l-4.8,17.1l-2.9,3.2l-8.8-8.8
		c-0.3,0.6-6.1-10.5-5-22.1l-7.9-16.5l-0.2-12l1.2-7.8l8.4-9l15-8.4l23.3-6.4c0,0-22.7-9-15.3-23.4c0,0,24.6-25.8,57.3-3.3
		c0,0-11.1-21,0.4-34.5C346.6,370.1,357.1,355.4,375.6,370.4z"/>
	<path class="st30" d="M416.7,394.3c0,0,17.3-42.4-20.7-42.7c0,0-14.4,1.7-19.9,13.5c0,0-19.7-15-32-1.4c0,0-5.9,6.2-6.5,12l2.6,1
		l4.2-8.6l5.8-4.9l5.8-2l7.9,0.7l6.6,2.9l5,4.1l8.5-7.3l10-5.5l10.2,0.9l6.2,9.2l4.8,10.2l0.1,11.7L416.7,394.3z"/>
	<path class="st31" d="M346.2,404.6c0,0-11.4-20.4-1.4-33.5c0,0,11-16.9,30.8-0.7c0,0,25-27.8,32.5-3.5c0,0-8.7-18.8-32.3,6.8
		C375.8,373.6,340.6,355,346.2,404.6z"/>
	<path class="st13" d="M423,441.6c0,0-26.9-1.3-67.7,11.8c0,0-38.5,11.5-57.9-6c0,0,14-8.3,25.6-5.4c0,0-12.7,3.5-15.1,5.8
		c0,0,19.3,7.9,41.3-0.5C349.3,447.3,396.8,432.2,423,441.6z"/>
	<path class="st32" d="M304.2,431.3c0,0-28.4-5.4-45.7,16.4c0,0-20.1,27,6.2,43.7c0,0-19.9-31.5,9.4-49.2
		C274,442.2,285.2,436.8,304.2,431.3z"/>
	<path class="st10" d="M317.5,566.3c0,0-37.3-19.3-30.1-60c0,0-10.3,24.6-3.9,39.4c0,0-22.1-20.8-18.9-48.4c0,0,1.3,13.7,10.1,17.5
		c0,0,3-20.2,17.7-20.1C292.3,494.7,296.1,546.6,317.5,566.3z"/>
	<path class="st10" d="M359,480.2c0,0,36,11.2,12.9,41c0,0,11.2-1.9,15.2-8.6c0,0-10.5,27.1-29,40.6c0,0,11.1-3,14.7-6.1
		c0,0-2.2,15.3-18.3,33.7c0,0,19.8-9.9,30-43c0,0-4.9,33.7-10.7,41.9c0,0,26.9-17.5,37.1-50.1c0,0-0.7,18-3.7,24.3
		c0,0,33.2-22.1,34.9-71.1c0,0-6.7-3.1-17.5-5.7C408.8,473.1,384.2,470.4,359,480.2z"/>
	<path class="st33" d="M359.8,208.2c0,0-2.7-13.7-6.2-17.9c0,0,16,23.9,16.3,28.1c0,0,0.5-3.9,2-6.4c0,0,2.3,18.6,3.9,21.2
		c0,0,8.9-50.6,26.7-57.9c0,0-11,17.7-12.1,28.5l10-11.4l-4.6,11.8c0,0,9.3-23.3,38.4-20.4c0,0-33.3,15.5-45.6,47.8l-5.3,0.7
		c0,0-7.5,7.4-7.9,11.1L359.8,208.2z"/>
	<path class="st5" d="M377,258.9c0,0,7.4-55.3,28-64.8c0,0-15.1,20.3-15.1,33.4c0,0,10.8-18.1,13.8-19.5l4.4,2.3
		c0,0,5.1-12.5,27.3-8.4c0,0-26.1,10.1-33.1,27.7c0,0-10.8,20.5-15.2,24.9l-4.5,7.9l3.3-12.9l-4.2,8.9l0.7-6.3L377,258.9z"/>
	<path class="st5" d="M405.4,233.5c0,0,38.5-30.1,62.9-26.4c0,0-10.1,1.7-17.8,6.6c0,0,19.5-4.6,33.4,7.1c0,0-8.9-0.1-13.9,0.5
		c0,0,13.9,4.5,15.8,7.8c0,0-9.2-0.1-15,1.1c0,0,22.8,19.7,19.2,35.4c0,0-8.9-20.5-31.6-31.3c0,0-23.3-6.8-49.5,6.7L405.4,233.5z"/>
	<path class="st5" d="M195.6,202.7c0,0,42-9.7,114.6,25.2l-1.3-9.5c0,0,13.1,8.4,12.9,14.4c0,0,2.8-10.7,0.6-14.6
		c0,0,14.9,11.2,20.6,23c0,0,15.3,9.5,16.3,14.1c0,0,10.8,3.3,13,7.7c0,0,2.6-19.7,3.1-22s-0.4,2.3-0.4,2.3l-14.7-34.4l-2.8-0.4
		c0,0-12.9-25.3-28.7-32.1c0,0,19.8,21.7,20.8,31.9l-3.1,1.3l2.7,8c0,0-13.6-19.2-20.2-22.9l7.6,15.9l-2.1,0.6
		c0,0-30.3-39.5-77.4-37.8c0,0,46.2,20.5,51.8,32.4c0,0-43-14.2-49.7-19.1C259.4,186.6,218.5,182.8,195.6,202.7z"/>
	<path class="st34" d="M288.9,407.9c0,0,20-38.2,45.7-25.2c0,0-0.1,15.9,11.6,21.9C346.2,404.6,318.5,384.7,288.9,407.9z"/>
	<path class="st0" d="M373.6,409.3c0,0,1.6-14.1,11.8-15.6c0,0,16.9,0.5,14.7-12.7c0,0-1.5-14.1-14.3-6.2c0,0-6.7,5.2-8.8,11.2
		c0,0-7.1-13.9-17.6-14.3c0,0-11.1-0.6-9.4,12.9c0,0,1.2,11.4,10.8,8.5C360.7,393,370.5,390.4,373.6,409.3z"/>
	<path class="st34" d="M352.5,462c0,0,24.8-6.7,37.5-7.8c0,0,24.5-4.6,36.8,2.5c0,0,9.6,4.3,2.7,6.2c0,0-9.3,2-6.3,4.5
		c0,0,19.8,6.4,21.9,7.9c0,0,9.2-15.6-2.2-20.2c0,0-22.4-10.6-50.5-4.9C392.4,450.1,371.2,454.8,352.5,462z"/>
	<g>
		<path class="st35" d="M751.2,251.5c-41.1-18.4-59.1-36.2-59.1-60.8c0-17.2,9.8-30.7,25.6-34.8c-55.4,1.8-86.7,24.8-86.7,64.9
			c0,34.8,24.8,62.6,76.1,84.7c39.7,17,56.9,34.2,56.9,57.3c0,20.3-13.5,35.6-36,39.7c63.2-1.8,98.6-25.6,98.6-66.3
			C826.5,302,802.1,274.6,751.2,251.5z"/>
		<path class="st35" d="M810.3,238.4c0-64.9-10-82.6-76.3-82.6C757.9,167.4,794.8,207.3,810.3,238.4z"/>
		<polygon class="st35" points="786.8,76.6 726.8,101.9 666.9,76.6 726.8,145.3 		"/>
		<path class="st35" d="M629.9,315.1c0,69.8,10.4,87.4,81.6,87.4C685.9,390,646.6,348,629.9,315.1z"/>
		<rect x="846.7" y="214.6" class="st35" width="51.6" height="185.7"/>
		<rect x="1171.6" y="216.5" class="st35" width="52.4" height="188"/>
		<path class="st35" d="M1240.3,315.1l-11,0.8c9.4,1,20,2,28.8,2c42.6,0,69.3-19.2,69.3-50.5c0-31.7-27.2-50.9-71-50.9h-27l11,2.2
			c20,5.5,30.9,22.9,30.9,49.9C1271.2,295.9,1259.9,313,1240.3,315.1z"/>
		<polygon class="st35" points="1329.9,366.4 1405.8,342.1 1337.5,342.1 1365.5,256.4 1291,404.5 1317.4,404.5 		"/>
		<polygon class="st35" points="1495,404.5 1405.6,216.5 1385.7,216.5 1366.1,255.4 1437.3,404.5 		"/>
		<polygon class="st35" points="1685.6,216.5 1658.9,216.5 1676.9,339.4 		"/>
		<polygon class="st35" points="1511.1,404.5 1540.2,404.5 1518.7,233.3 		"/>
		<polygon class="st35" points="1676.9,404.5 1676.9,341.9 1574.6,216.5 1518.7,216.5 1518.7,231 1659.9,404.5 		"/>
		<polygon class="st35" points="1871.6,404.5 1871.6,377.9 1765.2,404.5 		"/>
		<polygon class="st35" points="1710.2,216.5 1710.2,243.1 1815.5,216.5 		"/>
		<polygon class="st35" points="1816.8,216.5 1708.8,394.7 1708.8,404.5 1763.6,404.5 1872,226.1 1872,216.5 		"/>
		<polygon class="st35" points="1275.5,527.2 1275.5,508.6 1206.8,517.8 		"/>
		<rect x="1166" y="437" class="st35" width="39.5" height="162.4"/>
		<polygon class="st35" points="1287.4,599.2 1287.4,578.8 1206.8,599.2 		"/>
		<polygon class="st35" points="1286.3,437 1206.8,437 1286.3,457.3 		"/>
		<path class="st35" d="M1390.2,437H1359l18.8,2c29.3,3.7,47.1,32.5,47.1,79.2c0,46.6-17.6,75.5-47.1,79.2l-18.8,2h31.1
			c47.1,0,76.9-31.3,76.9-81.2C1467.2,468.3,1437.3,437,1390.2,437z"/>
		<rect x="1314.4" y="437" class="st35" width="39.5" height="162.4"/>
		<rect x="1492.9" y="437" class="st35" width="39.5" height="162.4"/>
		<polygon class="st35" points="1633.5,437 1619,466.1 1683,599.2 1726.6,599.2 1648.8,437 		"/>
		<polygon class="st35" points="1618.5,467.1 1551.9,599.2 1572.3,599.2 1584.6,564.1 1656,545.6 1591.1,545.6 		"/>
		<polygon class="st35" points="916.3,402.6 916.3,515.4 942.5,515.4 942.5,402.6 924.7,216.9 		"/>
		<path class="st35" d="M1048.8,363.2l44.8-101.5c2.9-6.7,5.5-15.7,6.8-22.5h0.6c-1.4,6.8-2.5,16.4-2.5,23.7v139.7l0,0v196.6h49.3
			V402.6l0,0V216.9h-56.5L1048.8,363.2z"/>
		<polygon class="st35" points="926.3,216.9 1008.9,402.6 1029.2,402.6 1048.6,364.4 982.7,216.9 		"/>
	</g>
	<g id="Logo">
		<g id="Text" class="st36">
		</g>
		<path class="st37" d="M438.5,546.6c0,0-30.7,62-35.4,78.9C403.1,625.6,437.6,573.1,438.5,546.6z"/>
	</g>
</g>
<g id="Vrstva_4">
</g>
</svg>
